<?xml version="1.0" encoding="UTF-8" standalone="no"?><!-- Generator: Gravit.io --><svg xmlns="http://www.w3.org/2000/svg" xmlns:xlink="http://www.w3.org/1999/xlink" style="isolation:isolate" viewBox="271.515 471.242 231.132 350" width="231.132pt" height="350pt"><defs><clipPath id="_clipPath_N44wGaSFYBIClJrfH7MPORq091SDHLPR"><rect x="271.515" y="471.242" width="231.132" height="350"/></clipPath></defs><g clip-path="url(#_clipPath_N44wGaSFYBIClJrfH7MPORq091SDHLPR)"><g><path d=" M 468.598 512.814 C 449.2 487.44 419.7 471.242 386.662 471.242 C 355.05 471.242 326.676 486.072 307.292 509.58 C 296.079 523.179 290.031 540.779 290.031 558.911 L 290.031 559.937 L 290.031 659.897 C 290.031 665.661 294.442 670.333 299.881 670.333 L 474.282 670.333 C 479.721 670.333 484.131 665.66 484.131 659.897 L 484.131 559.937 C 484.131 542.795 478.744 526.085 468.598 512.814 L 468.598 512.814 Z " fill="rgb(204,129,82)"/><path d=" M 484.131 559.934 L 484.131 659.896 C 484.131 665.661 479.719 670.336 474.278 670.336 L 460.519 670.336 C 465.96 670.336 470.372 665.661 470.372 659.896 L 470.372 559.934 C 470.372 551.367 469.024 542.906 466.412 534.923 C 463.795 526.947 459.908 519.45 454.839 512.811 C 436.788 489.207 410.001 473.545 379.746 471.482 C 382.031 471.32 384.337 471.243 386.662 471.243 C 419.701 471.243 449.198 487.441 468.598 512.812 C 473.674 519.45 477.553 526.947 480.171 534.924 C 482.782 542.906 484.131 551.367 484.131 559.934 Z " fill="rgb(191,122,80)"/><g><path d=" M 500.161 817.87 L 274.971 817.87 C 274.79 814.587 274.79 814.747 274.932 811.635 C 276.123 785.131 287.295 764.116 306.352 746.899 C 324.06 730.893 340.922 721.952 351.344 718.074 C 353.183 717.39 354.264 713.673 355.525 713.265 C 357.09 712.758 358.685 712.395 360.281 712.01 C 361.541 711.706 362.63 711.177 363.567 710.477 C 370.658 705.229 369.267 690.414 369.267 690.414 L 404.894 690.414 C 404.894 690.414 403.503 705.229 410.594 710.477 C 411.531 711.178 412.62 711.706 413.88 712.01 C 415.476 712.395 417.071 712.758 418.636 713.265 C 420.019 713.713 422.243 717.273 424.315 718.054 C 434.84 722.024 450.552 727.602 467.959 743.334 C 487.015 760.551 499.007 785.131 500.199 811.636 C 500.342 814.748 500.342 814.588 500.161 817.87 L 500.161 817.87 Z " fill="rgb(255,167,143)"/><path d=" M 502.507 821.242 L 271.655 821.242 C 271.476 817.962 271.476 814.745 271.615 811.633 C 272.804 785.129 284.796 760.547 303.856 743.336 C 325.86 723.449 349.644 715.065 356.806 712.862 C 356.806 712.862 357.304 746.359 383.32 762.009 C 385.645 763.407 388.517 763.407 390.841 762.009 C 416.858 746.359 417.356 712.862 417.356 712.862 C 424.517 715.065 448.301 723.449 470.305 743.336 C 489.366 760.547 501.358 785.129 502.547 811.633 C 502.687 814.746 502.687 817.963 502.507 821.242 L 502.507 821.242 Z " fill="rgb(73,202,120)"/><path d=" M 502.507 821.242 L 490.549 821.242 L 488.731 821.172 C 487.542 794.668 477.369 770.086 458.308 752.874 C 442.729 738.795 426.259 730.481 415.423 726.039 C 417.271 718.402 417.357 712.862 417.357 712.862 C 424.519 715.065 448.303 723.449 470.307 743.336 C 489.367 760.547 501.359 785.129 502.548 811.633 C 502.687 814.746 502.687 817.963 502.507 821.242 L 502.507 821.242 Z " fill="rgb(78,191,120)"/></g><path d=" M 451.951 549.885 L 459.806 578.728 L 459.806 604.687 L 459.806 611.488 L 458.029 620.065 C 458.029 622.691 457.904 625.29 457.662 627.845 C 455.945 646.018 448.498 659.376 436.96 671.602 C 423.802 685.544 407.168 694.342 387.081 694.342 C 366.067 694.342 349.104 685.92 336.098 671.602 C 325.776 660.24 317.328 645.114 315.701 627.902 C 315.459 625.346 315.334 622.748 315.334 620.122 L 315.334 610.574 L 314.357 604.687 L 314.357 567.755 L 321.328 549.884 L 451.951 549.884 L 451.951 549.885 Z " fill="rgb(255,206,191)"/><path d=" M 451.951 549.882 L 459.809 569.119 L 459.809 604.687 L 458.577 609.025 L 458.247 620.716 C 458.247 623.341 458.121 625.939 457.875 628.494 C 456.161 646.67 449.2 659.707 437.66 671.927 C 424.506 685.873 407.171 695.629 387.081 695.629 C 384.842 695.629 382.623 695.523 380.437 695.305 C 397.877 693.644 413.529 685.449 425.215 673.06 C 436.755 660.839 444.435 644.529 446.149 626.353 C 446.394 623.797 446.521 621.2 446.521 618.574 L 446.521 549.882 L 451.951 549.882 Z " fill="rgb(255,176,158)"/><g><g><path d=" M 357.356 618.888 C 354.684 618.888 352.517 616.592 352.517 613.761 L 352.517 604.29 C 352.517 601.459 354.684 599.163 357.356 599.163 C 360.028 599.163 362.194 601.459 362.194 604.29 L 362.194 613.761 C 362.194 616.592 360.028 618.888 357.356 618.888 Z " fill="rgb(89,108,118)"/></g><g><path d=" M 416.806 618.888 C 414.134 618.888 411.967 616.592 411.967 613.761 L 411.967 604.29 C 411.967 601.459 414.134 599.163 416.806 599.163 C 419.478 599.163 421.645 601.459 421.645 604.29 L 421.645 613.761 C 421.645 616.592 419.478 618.888 416.806 618.888 Z " fill="rgb(89,108,118)"/></g></g><path d=" M 459.806 604.687 L 459.806 618.574 C 459.806 621.2 459.681 623.798 459.439 626.354 C 457.721 644.527 450.044 660.837 438.506 673.063 C 425.348 687.005 407.168 695.633 387.081 695.633 C 349.391 695.633 318.401 665.255 314.723 626.355 C 314.481 623.798 314.356 621.2 314.356 618.575 L 314.356 604.687 C 314.356 604.687 329.387 628.947 368.849 635.574 C 380.923 637.601 393.239 637.601 405.313 635.574 C 444.774 628.947 459.806 604.687 459.806 604.687 L 459.806 604.687 Z " fill="rgb(245,248,249)"/><path d=" M 459.808 604.685 L 459.808 618.574 C 459.808 621.2 459.682 623.797 459.436 626.353 C 457.722 644.529 450.042 660.839 438.502 673.06 C 425.348 687.005 407.171 695.629 387.081 695.629 C 385.411 695.629 383.747 695.552 382.085 695.446 C 381.533 695.411 380.982 695.362 380.437 695.305 C 397.877 693.644 413.529 685.449 425.215 673.06 C 436.755 660.839 444.435 644.529 446.149 626.353 C 446.394 623.797 446.521 621.2 446.521 618.574 L 446.521 618.299 C 455.809 611.14 459.808 604.685 459.808 604.685 L 459.808 604.685 Z " fill="rgb(217,231,236)"/><path d=" M 446.822 524.518 C 436.948 511.48 422.697 503.095 407.439 499.392 C 394.018 496.134 380.163 496.13 366.724 499.392 C 351.466 503.095 337.215 511.48 327.34 524.518 C 318.837 535.745 314.357 549.801 314.357 564.196 L 314.357 569.119 C 314.357 569.119 335.545 575.875 337.182 576.292 C 342.04 577.529 346.934 578.609 351.857 579.518 C 357.547 580.568 367.212 581.355 372.948 581.883 C 372.948 581.883 378.871 567.057 387.082 560.403 C 395.292 567.057 401.215 581.883 401.215 581.883 C 406.951 581.355 416.616 580.568 422.306 579.518 C 427.229 578.609 432.123 577.529 436.981 576.292 C 438.618 575.876 459.806 569.119 459.806 569.119 L 459.806 564.196 C 459.806 549.801 455.325 535.745 446.822 524.518 L 446.822 524.518 Z " fill="rgb(204,129,82)"/></g></g></svg>