<?xml version="1.0" encoding="UTF-8" standalone="no"?><!-- Generator: Gravit.io --><svg xmlns="http://www.w3.org/2000/svg" xmlns:xlink="http://www.w3.org/1999/xlink" style="isolation:isolate" viewBox="164 262 322 278" width="322pt" height="278pt"><defs><clipPath id="_clipPath_4xpu2bD5pvnCvppChOZU9m2SfvRScxTq"><rect x="164" y="262" width="322" height="278"/></clipPath></defs><g clip-path="url(#_clipPath_4xpu2bD5pvnCvppChOZU9m2SfvRScxTq)"><g><g><path d=" M 288.684 334.251 C 266.343 343.217 250.854 362.764 250.854 385.435 L 250.854 417.115 L 325 472.142 L 339.998 402.547 L 325 342.394 C 325 342.394 297.046 330.896 288.684 334.251 L 288.684 334.251 Z " fill="rgb(249,175,119)"/><path d=" M 325 339.742 L 325 472.142 L 326.912 473.561 L 399.146 417.115 L 399.146 385.435 C 399.146 362.928 383.88 343.5 361.8 334.447 C 353.315 330.968 325 339.742 325 339.742 L 325 339.742 Z " fill="rgb(206,143,95)"/></g><g><path d=" M 312.292 486.831 L 312.292 470.078 C 312.292 447.49 296.916 428.003 274.707 418.993 C 266.283 415.576 210.411 415.495 202.125 418.777 C 179.626 427.689 164 447.308 164 470.078 L 164 486.831 L 312.292 486.831 Z " fill="rgb(227,162,65)"/><g><path d=" M 274.822 419.044 C 266.368 415.597 256.922 413.665 246.951 413.665 L 229.342 413.665 C 219.372 413.665 209.925 415.596 201.471 419.044 L 238.147 450.708 L 274.822 419.044 Z " fill="rgb(254,191,181)"/></g><g><g><g><path d=" M 238.146 419.045 C 215.026 419.045 196.216 402.805 196.216 382.844 C 196.216 362.883 215.026 346.643 238.146 346.643 C 261.267 346.643 280.077 362.883 280.077 382.844 C 280.077 402.805 261.267 419.045 238.146 419.045 L 238.146 419.045 Z " fill="rgb(254,225,220)"/></g></g></g></g><g><path d=" M 486 486.831 L 486 470.078 C 486 447.443 470.558 427.921 448.274 418.936 C 439.886 415.554 383.837 415.552 375.453 418.929 C 353.159 427.91 337.708 447.436 337.708 470.078 L 337.708 486.831 L 486 486.831 Z " fill="rgb(63,195,63)"/><g><path d=" M 448.53 419.044 C 440.075 415.597 430.629 413.665 420.659 413.665 L 403.05 413.665 C 393.08 413.665 383.633 415.596 375.179 419.044 L 411.855 450.708 L 448.53 419.044 Z " fill="rgb(254,191,181)"/></g><g><g><g><path d=" M 411.854 419.045 C 388.733 419.045 369.923 402.805 369.923 382.844 C 369.923 362.883 388.733 346.643 411.854 346.643 C 434.974 346.643 453.784 362.883 453.784 382.844 C 453.784 402.805 434.975 419.045 411.854 419.045 L 411.854 419.045 Z " fill="rgb(254,225,220)"/></g></g></g></g><g><path d=" M 316.195 329.022 C 306.225 329.022 296.778 330.953 288.325 334.401 L 325 366.065 L 331.273 346.597 L 325 329.022 L 316.195 329.022 Z " fill="rgb(254,191,181)"/><path d=" M 333.805 329.022 L 325 329.022 L 325 366.064 L 361.676 334.4 C 353.222 330.953 343.775 329.022 333.805 329.022 Z " fill="rgb(253,150,131)"/></g><g><path d=" M 283.07 298.201 C 283.07 318.162 301.88 334.402 325 334.402 L 336.259 300.688 L 325 262 C 301.88 262 283.07 278.24 283.07 298.201 Z " fill="rgb(254,225,220)"/><path d=" M 325 262 L 325 334.402 C 348.12 334.402 366.93 318.163 366.93 298.201 C 366.93 278.24 348.12 262 325 262 Z " fill="rgb(251,209,202)"/></g><g><g><path d=" M 277.061 490.237 C 277.061 513.278 298.438 531.997 325 532.447 L 336.882 489.968 L 325 448.027 C 298.437 448.477 277.061 467.195 277.061 490.237 Z " fill="rgb(237,245,255)"/><path d=" M 325.977 448.005 C 325.649 448.005 325.326 448.021 325 448.026 L 325 532.447 C 325.326 532.453 325.649 532.468 325.977 532.468 C 352.993 532.468 374.893 513.561 374.893 490.236 C 374.893 466.913 352.993 448.005 325.977 448.005 L 325.977 448.005 Z " fill="rgb(214,232,253)"/></g><g><path d=" M 304.589 518.817 L 325 501.195 L 331.897 489.43 L 325 478.198 L 291.262 507.326 C 287.63 502.174 285.537 496.128 285.537 489.668 C 285.537 470.882 303.24 455.599 325 455.599 L 333.143 450.157 L 325 439.336 C 292.854 439.336 266.702 461.915 266.702 489.668 C 266.702 517.421 292.854 540 325 540 L 333.143 533.007 L 325 523.739 C 317.535 523.739 310.548 521.939 304.589 518.817 L 304.589 518.817 Z " fill="rgb(255,51,119)"/><path d=" M 325 439.336 L 325 455.598 C 332.482 455.598 339.484 457.405 345.452 460.54 L 325 478.198 L 325 501.195 L 358.762 472.046 C 362.378 477.191 364.463 483.223 364.463 489.668 C 364.463 508.455 346.76 523.739 325 523.739 L 325 540 C 357.146 540 383.298 517.421 383.298 489.668 C 383.298 461.915 357.146 439.336 325 439.336 L 325 439.336 Z " fill="rgb(147,84,105)"/></g></g></g></g></svg>