<?xml version="1.0" encoding="UTF-8" standalone="no"?><!-- Generator: Gravit.io --><svg xmlns="http://www.w3.org/2000/svg" xmlns:xlink="http://www.w3.org/1999/xlink" style="isolation:isolate" viewBox="338 310 285 267.172" width="285pt" height="267.172pt"><defs><clipPath id="_clipPath_wJfec9JogO08wpvA5d3gp07LaOk5NyoT"><rect x="338" y="310" width="285" height="267.172"/></clipPath></defs><g clip-path="url(#_clipPath_wJfec9JogO08wpvA5d3gp07LaOk5NyoT)"><g><path d=" M 620.391 432.811 L 509.629 322.044 C 493.564 305.985 467.436 305.985 451.371 322.044 L 340.609 432.811 C 337.13 436.29 337.13 441.929 340.609 445.408 C 344.083 448.887 349.727 448.887 353.201 445.408 L 360.264 438.344 L 360.264 551.566 C 360.264 565.708 371.729 577.172 385.87 577.172 L 430.402 577.172 C 433.476 577.172 435.968 574.68 435.968 571.606 L 435.968 489.222 C 435.968 473.851 448.429 461.39 463.801 461.39 L 497.199 461.39 C 512.571 461.39 525.032 473.851 525.032 489.222 L 525.032 571.606 C 525.032 574.68 527.524 577.172 530.598 577.172 L 575.13 577.172 C 589.271 577.172 600.736 565.708 600.736 551.566 L 600.736 438.344 L 607.799 445.408 C 609.536 447.145 611.818 448.019 614.095 448.019 C 616.372 448.019 618.654 447.145 620.391 445.408 C 623.87 441.929 623.87 436.29 620.391 432.811 L 620.391 432.811 Z " fill="rgb(223,102,102)"/></g></g></svg>