<?xml version="1.0" encoding="UTF-8" standalone="no"?><!-- Generator: Gravit.io --><svg xmlns="http://www.w3.org/2000/svg" xmlns:xlink="http://www.w3.org/1999/xlink" style="isolation:isolate" viewBox="492 254 204.868 305" width="204.868pt" height="305pt"><defs><clipPath id="_clipPath_N6WQeLfYu5jR7798PU4XyXpdRNcNHHmF"><rect x="492" y="254" width="204.868" height="305"/></clipPath></defs><g clip-path="url(#_clipPath_N6WQeLfYu5jR7798PU4XyXpdRNcNHHmF)"><g><g><g><path d=" M 694.245 556.598 C 694.245 529.713 694.245 508.922 694.245 482.535 C 694.245 463.852 677.694 448.706 657.278 448.706 L 531.591 448.706 C 511.175 448.706 494.624 463.852 494.624 482.535 L 494.624 556.598 L 694.245 556.598 Z " fill="rgb(70,113,198)"/></g></g><g><g><path d=" M 631.328 419.276 L 594.399 419.276 L 557.471 419.276 L 557.471 468.341 L 631.326 468.341 C 631.328 451.285 631.328 437.445 631.328 419.276 Z " fill="rgb(249,207,207)"/></g></g><g><g><path d=" M 694.245 559 L 494.624 559 C 493.176 559 492 557.924 492 556.598 L 492 482.534 C 492 462.556 509.76 446.304 531.591 446.304 L 554.846 446.304 L 554.846 419.276 C 554.846 417.951 556.022 416.875 557.471 416.875 L 631.326 416.875 C 632.775 416.875 633.951 417.951 633.951 419.276 L 633.951 446.304 L 657.277 446.304 C 679.108 446.304 696.868 462.556 696.868 482.534 L 696.868 556.598 C 696.869 557.924 695.695 559 694.245 559 L 694.245 559 Z  M 497.249 554.197 L 691.62 554.197 L 691.62 482.534 C 691.62 465.205 676.214 451.107 657.278 451.107 L 631.328 451.107 C 629.879 451.107 628.703 450.031 628.703 448.705 L 628.703 421.678 L 560.095 421.678 L 560.095 448.705 C 560.095 450.031 558.919 451.107 557.471 451.107 L 531.592 451.107 C 512.655 451.107 497.25 465.205 497.25 482.534 L 497.25 554.197 L 497.249 554.197 Z " fill="rgb(112,139,191)"/></g></g><g><g><path d=" M 525.64 559 C 524.191 559 523.016 557.924 523.016 556.598 L 523.016 505.766 C 523.016 504.44 524.191 503.364 525.64 503.364 C 527.089 503.364 528.264 504.44 528.264 505.766 L 528.264 556.598 C 528.264 557.924 527.09 559 525.64 559 Z " fill="rgb(55,98,204)"/></g></g><g><g><path d=" M 663.157 559 C 661.708 559 660.533 557.924 660.533 556.598 L 660.533 505.766 C 660.533 504.44 661.708 503.364 663.157 503.364 C 664.606 503.364 665.781 504.44 665.781 505.766 L 665.781 556.598 C 665.781 557.924 664.607 559 663.157 559 Z " fill="rgb(55,98,204)"/></g></g><g><g><path d=" M 594.435 424.96 C 546.609 424.96 507.839 389.481 507.839 345.715 L 507.839 312.524 C 507.839 301.524 517.585 292.605 529.605 292.605 L 681.03 292.605 L 681.03 345.716 C 681.03 389.481 642.261 424.96 594.435 424.96 L 594.435 424.96 Z " fill="rgb(70,113,198)"/></g></g><g><g><path d=" M 594.435 427.361 C 545.239 427.361 505.215 390.735 505.215 345.715 L 505.215 312.524 C 505.215 300.216 516.157 290.204 529.605 290.204 L 681.03 290.204 C 682.479 290.204 683.654 291.28 683.654 292.605 L 683.654 345.716 C 683.654 390.735 643.63 427.361 594.435 427.361 L 594.435 427.361 Z  M 529.605 295.006 C 519.05 295.006 510.464 302.864 510.464 312.523 L 510.464 345.715 C 510.464 388.086 548.133 422.558 594.435 422.558 C 640.736 422.558 678.406 388.086 678.406 345.715 L 678.406 295.006 L 529.605 295.006 Z " fill="rgb(55,98,204)"/></g></g><g><g><path d=" M 668.189 351.072 L 668.189 344.752 C 668.189 307.812 635.168 277.867 594.436 277.867 C 553.702 277.867 520.683 307.812 520.683 344.752 L 520.683 351.072 C 507.876 350.834 497.716 360.17 497.716 371.456 C 497.716 383.507 509.212 393.039 522.631 391.741 C 530.243 421.333 559.493 443.38 594.437 443.38 C 629.384 443.38 658.633 421.331 666.243 391.741 C 679.644 393.038 691.159 383.524 691.159 371.456 C 691.156 360.165 680.988 350.834 668.189 351.072 Z " fill="rgb(249,207,207)"/></g></g><g><g><path d=" M 594.435 445.781 C 559.499 445.781 529.457 424.696 520.612 394.256 C 514.253 394.336 508.066 392.247 503.337 388.351 C 498.095 384.034 495.089 377.877 495.089 371.456 C 495.089 365.309 497.742 359.546 502.562 355.224 C 506.779 351.443 512.205 349.189 518.056 348.747 L 518.056 344.752 C 518.056 306.548 552.319 275.465 594.435 275.465 C 636.55 275.465 670.813 306.548 670.813 344.752 L 670.813 348.747 C 676.664 349.189 682.089 351.443 686.307 355.225 C 691.126 359.547 693.78 365.311 693.78 371.457 C 693.78 377.878 690.774 384.036 685.535 388.35 C 680.804 392.245 674.599 394.342 668.257 394.256 C 659.412 424.696 629.368 445.781 594.435 445.781 L 594.435 445.781 Z  M 522.631 389.338 C 523.836 389.338 524.903 390.096 525.183 391.19 C 532.723 420.505 561.2 440.977 594.435 440.977 C 627.668 440.977 656.146 420.504 663.686 391.19 C 663.989 390.013 665.197 389.225 666.516 389.352 C 672.175 389.902 677.83 388.232 682.023 384.778 C 686.159 381.372 688.53 376.516 688.53 371.455 C 688.53 366.61 686.436 362.065 682.633 358.655 C 678.794 355.211 673.667 353.381 668.242 353.472 C 667.543 353.491 666.856 353.239 666.352 352.786 C 665.848 352.335 665.565 351.716 665.565 351.07 L 665.565 344.751 C 665.565 309.194 633.657 280.267 594.435 280.267 C 555.212 280.267 523.304 309.194 523.304 344.751 L 523.304 351.07 C 523.304 351.716 523.021 352.334 522.517 352.786 C 522.013 353.238 521.331 353.488 520.628 353.472 C 515.156 353.372 510.075 355.211 506.236 358.653 C 502.433 362.064 500.338 366.61 500.338 371.455 C 500.338 376.516 502.711 381.374 506.847 384.78 C 511.041 388.234 516.696 389.898 522.352 389.352 C 522.446 389.343 522.539 389.338 522.631 389.338 L 522.631 389.338 Z " fill="rgb(55,98,204)"/></g></g><g><g><path d=" M 681.03 338.098 L 565.319 338.098 C 540.666 338.098 520.681 319.81 520.681 297.25 C 520.681 274.69 540.666 256.402 565.319 256.402 L 641.059 256.402 C 663.135 256.402 681.03 272.778 681.03 292.98 L 681.03 338.098 Z " fill="rgb(70,113,198)"/></g></g><g><g><path d=" M 681.03 340.5 L 565.319 340.5 C 539.259 340.5 518.057 321.098 518.057 297.25 C 518.057 273.402 539.258 254 565.319 254 L 641.059 254 C 664.546 254 683.654 271.487 683.654 292.98 L 683.654 338.098 C 683.654 339.425 682.48 340.5 681.03 340.5 Z  M 565.319 258.803 C 542.152 258.803 523.306 276.05 523.306 297.25 C 523.306 318.45 542.152 335.697 565.319 335.697 L 678.407 335.697 L 678.407 292.98 C 678.406 274.135 661.652 258.803 641.059 258.803 L 565.319 258.803 Z " fill="rgb(55,98,204)"/></g></g><g><g><path d=" M 625.708 361.253 C 624.276 362.753 623.403 364.709 623.403 366.856 L 623.403 375.956 C 623.403 380.666 627.577 384.486 632.725 384.486 C 637.874 384.486 642.047 380.666 642.047 375.956 L 642.047 367.269 C 635.374 366.202 629.809 363.696 625.708 361.253 L 625.708 361.253 Z " fill="rgb(55,98,204)"/></g></g><g><g><path d=" M 546.804 367.261 L 546.804 375.956 C 546.804 380.666 550.978 384.486 556.126 384.486 C 561.273 384.486 565.447 380.666 565.447 375.956 L 565.447 366.856 C 565.447 364.699 564.566 362.735 563.124 361.233 C 559.03 363.676 553.471 366.186 546.804 367.261 L 546.804 367.261 Z " fill="rgb(55,98,204)"/></g></g><g><g><path d=" M 648.685 370.209 C 629.113 370.209 616.445 357.535 615.903 356.983 C 614.935 355.996 615.024 354.478 616.101 353.592 C 617.177 352.706 618.834 352.786 619.804 353.771 C 619.925 353.894 632.032 365.958 649.914 365.386 C 651.395 365.353 652.578 366.38 652.627 367.705 C 652.675 369.031 651.54 370.141 650.093 370.187 C 649.619 370.201 649.149 370.209 648.685 370.209 L 648.685 370.209 Z " fill="rgb(55,98,204)"/></g></g><g><g><path d=" M 540.113 370.209 C 539.648 370.209 539.18 370.201 538.707 370.187 C 537.258 370.141 536.124 369.031 536.173 367.705 C 536.221 366.379 537.412 365.361 538.885 365.386 C 556.838 365.948 568.872 353.896 568.992 353.775 C 569.96 352.788 571.619 352.706 572.697 353.593 C 573.776 354.479 573.865 355.997 572.895 356.984 C 572.355 357.535 559.684 370.209 540.113 370.209 L 540.113 370.209 Z " fill="rgb(55,98,204)"/></g></g><g><g><path d=" M 577.599 409.258 C 576.932 409.258 576.262 409.026 575.751 408.562 C 574.722 407.628 574.715 406.107 575.736 405.165 C 578.287 402.812 581.657 400.949 585.483 399.777 C 588.081 398.981 590.991 398.558 594.133 398.522 C 597.517 398.491 600.433 398.821 603.067 399.553 C 607.216 400.709 610.852 402.649 613.58 405.165 C 614.601 406.106 614.595 407.626 613.566 408.562 C 612.537 409.495 610.876 409.489 609.854 408.549 C 607.736 406.595 604.86 405.073 601.539 404.149 C 599.43 403.56 597.033 403.298 594.2 403.325 C 591.603 403.355 589.231 403.694 587.149 404.331 C 584.096 405.267 581.438 406.725 579.461 408.549 C 578.95 409.022 578.275 409.258 577.599 409.258 L 577.599 409.258 Z " fill="rgb(55,98,204)"/></g></g><g><g><path d=" M 649.216 347.061 L 540.102 347.061 C 535.029 347.061 530.916 343.298 530.916 338.656 L 530.916 305.634 C 530.916 300.992 535.029 297.228 540.102 297.228 L 649.216 297.228 C 654.289 297.228 658.402 300.992 658.402 305.634 L 658.402 338.656 C 658.402 343.298 654.289 347.061 649.216 347.061 Z " fill="rgb(224,235,252)"/></g></g><g><g><path d=" M 649.216 349.463 L 540.1 349.463 C 533.589 349.463 528.291 344.614 528.291 338.656 L 528.291 305.634 C 528.291 299.676 533.589 294.827 540.1 294.827 L 649.215 294.827 C 655.726 294.827 661.025 299.676 661.025 305.634 L 661.025 338.656 C 661.026 344.614 655.727 349.463 649.216 349.463 Z  M 540.1 299.63 C 536.483 299.63 533.539 302.323 533.539 305.634 L 533.539 338.656 C 533.539 341.966 536.483 344.659 540.1 344.659 L 649.215 344.659 C 652.833 344.659 655.776 341.966 655.776 338.656 L 655.776 305.634 C 655.776 302.323 652.833 299.63 649.215 299.63 L 540.1 299.63 Z " fill="rgb(55,98,204)"/></g></g><g><g><path d=" M 646.066 535.384 L 593.122 535.384 C 590.948 535.384 589.186 533.771 589.186 531.782 L 589.186 464.592 C 589.186 462.602 590.948 460.989 593.122 460.989 L 646.066 460.989 C 648.24 460.989 650.002 462.602 650.002 464.592 L 650.002 531.782 C 650.002 533.771 648.24 535.384 646.066 535.384 L 646.066 535.384 Z " fill="rgb(107,221,221)"/></g></g><g><g><g><path d=" M 659.29 387.231 L 653.356 398.26 C 651.808 401.14 652.342 404.592 654.704 406.965 C 658.088 410.364 663.932 410.364 667.315 406.965 C 669.677 404.592 670.211 401.14 668.663 398.26 L 662.729 387.231 C 662.026 385.926 659.992 385.926 659.29 387.231 L 659.29 387.231 Z " fill="rgb(164,201,255)"/></g></g><g><g><path d=" M 661.01 411.917 C 657.878 411.917 654.873 410.702 652.764 408.583 C 649.655 405.459 648.964 400.991 651.004 397.201 L 656.936 386.172 C 657.706 384.742 659.266 383.852 661.009 383.852 C 662.751 383.852 664.313 384.742 665.082 386.172 L 671.015 397.201 C 673.055 400.991 672.363 405.459 669.255 408.583 C 667.146 410.702 664.141 411.917 661.01 411.917 Z  M 661.01 389.473 L 655.712 399.322 C 654.632 401.328 654.998 403.695 656.643 405.348 C 657.776 406.487 659.327 407.114 661.009 407.114 C 662.691 407.114 664.242 406.487 665.374 405.348 C 667.02 403.695 667.386 401.328 666.306 399.322 L 661.01 389.473 Z  M 661.644 388.292" fill="rgb(55,98,204)"/></g></g></g><g><g><g><path d=" M 518.962 339.078 L 513.029 350.107 C 511.48 352.987 512.015 356.439 514.376 358.812 C 517.761 362.211 523.605 362.211 526.988 358.812 C 529.35 356.439 529.884 352.987 528.335 350.107 L 522.402 339.078 C 521.698 337.773 519.664 337.773 518.962 339.078 Z " fill="rgb(164,201,255)"/></g></g><g><g><path d=" M 520.681 363.763 C 517.549 363.763 514.544 362.548 512.436 360.429 C 509.327 357.306 508.636 352.838 510.675 349.047 L 516.608 338.018 C 517.379 336.587 518.939 335.698 520.683 335.698 C 522.425 335.698 523.987 336.587 524.756 338.018 L 530.689 349.047 C 532.728 352.838 532.037 357.306 528.927 360.429 C 526.817 362.548 523.812 363.763 520.681 363.763 Z  M 520.681 341.319 L 515.383 351.168 C 514.303 353.174 514.669 355.541 516.315 357.194 C 517.447 358.333 518.998 358.96 520.68 358.96 C 522.362 358.96 523.913 358.333 525.046 357.194 C 526.692 355.541 527.059 353.174 525.979 351.168 L 520.681 341.319 Z " fill="rgb(55,98,204)"/></g></g></g><g><g><g><path d=" M 589.186 518.774 L 650.002 518.774 L 650.002 524.778 L 589.186 524.778 L 589.186 518.774 Z " fill="rgb(224,235,252)"/></g></g></g><g><g><path d=" M 646.066 537.786 L 593.122 537.786 C 589.505 537.786 586.562 535.092 586.562 531.782 L 586.562 464.59 C 586.562 461.28 589.505 458.587 593.122 458.587 L 646.066 458.587 C 649.684 458.587 652.627 461.28 652.627 464.59 L 652.627 531.782 C 652.627 535.092 649.684 537.786 646.066 537.786 L 646.066 537.786 Z  M 593.122 463.391 C 592.399 463.391 591.81 463.93 591.81 464.592 L 591.81 531.783 C 591.81 532.445 592.399 532.984 593.122 532.984 L 646.066 532.984 C 646.789 532.984 647.378 532.445 647.378 531.783 L 647.378 464.592 C 647.378 463.93 646.789 463.391 646.066 463.391 L 593.122 463.391 Z " fill="rgb(55,98,204)"/></g></g><g><g><path d=" M 647.887 480.148 L 540.982 480.148 C 533.735 480.148 527.86 474.772 527.86 468.14 L 527.86 443.914 C 527.86 437.282 533.735 431.906 540.982 431.906 L 647.887 431.906 C 655.134 431.906 661.009 437.282 661.009 443.914 L 661.009 468.14 C 661.009 474.772 655.134 480.148 647.887 480.148 Z " fill="rgb(107,221,221)"/></g></g><g><g><path d=" M 647.888 482.549 L 540.982 482.549 C 532.299 482.549 525.236 476.086 525.236 468.14 L 525.236 443.914 C 525.236 435.969 532.299 429.505 540.982 429.505 L 647.888 429.505 C 656.571 429.505 663.635 435.969 663.635 443.914 L 663.635 468.14 C 663.635 476.086 656.57 482.549 647.888 482.549 Z  M 540.982 434.308 C 535.194 434.308 530.485 438.617 530.485 443.914 L 530.485 468.14 C 530.485 473.437 535.194 477.746 540.982 477.746 L 647.888 477.746 C 653.676 477.746 658.386 473.437 658.386 468.14 L 658.386 443.914 C 658.386 438.617 653.676 434.308 647.888 434.308 L 540.982 434.308 Z " fill="rgb(55,98,204)"/></g></g></g></g></svg>