<?xml version="1.0" encoding="UTF-8" standalone="no"?><!-- Generator: Gravit.io --><svg xmlns="http://www.w3.org/2000/svg" xmlns:xlink="http://www.w3.org/1999/xlink" style="isolation:isolate" viewBox="446.515 394.242 310 310" width="310pt" height="310pt"><defs><clipPath id="_clipPath_GizFTzhD7HlvSGcEvAeYiNunmqL50UtH"><rect x="446.515" y="394.242" width="310" height="310"/></clipPath></defs><g clip-path="url(#_clipPath_GizFTzhD7HlvSGcEvAeYiNunmqL50UtH)"><g><path d=" M 741.015 492.409 L 738.091 490.069 C 722.884 477.904 706.145 467.789 688.304 459.984 L 642.784 441.93 C 636.767 439.298 629.73 441.151 625.789 446.404 C 623.489 449.472 622.531 453.341 623.136 457.127 C 623.74 460.913 625.855 464.291 628.995 466.49 L 668.682 492.409 L 560.182 492.409 C 551.621 492.409 544.682 499.349 544.682 507.909 C 544.682 516.47 551.621 523.409 560.182 523.409 L 555.015 523.409 C 546.455 523.409 539.515 530.349 539.515 538.909 C 539.515 547.47 546.455 554.409 555.015 554.409 L 565.348 554.409 C 556.788 554.409 549.848 561.349 549.848 569.909 C 549.848 578.469 556.788 585.409 565.348 585.409 L 580.848 585.409 C 572.288 585.409 565.348 592.349 565.348 600.909 C 565.348 609.469 572.288 616.409 580.848 616.409 L 675.356 616.409 C 698.149 616.409 720.629 605.936 741.015 595.742 L 756.515 595.742 L 756.515 492.409 L 741.015 492.409 Z " fill="rgb(253,182,131)"/><circle vector-effect="non-scaling-stroke" cx="586.0151515151514" cy="461.4090903894223" r="10.333333333333371" fill="rgb(77,182,228)"/><path d=" M 605.627 699.076 L 555.015 451.076 L 513.682 451.076 L 463.07 699.076 L 605.627 699.076 Z " fill="rgb(77,182,228)"/><path d=" M 503.348 399.409 L 446.515 399.409 L 446.515 435.576 L 498.182 435.576 C 506.742 435.576 513.682 442.515 513.682 451.076 L 555.015 451.076 C 555.015 422.541 531.883 399.409 503.348 399.409 Z " fill="rgb(223,223,221)"/><path d=" M 699.682 575.076 L 696.757 572.737 C 681.551 560.571 664.812 550.456 646.971 542.65 L 611.848 529.763 C 605.832 527.131 598.794 528.984 594.854 534.238 C 592.554 537.305 591.596 541.174 592.2 544.96 C 592.805 548.746 594.919 552.125 598.06 554.323 L 627.348 575.076 L 518.848 575.076 C 510.288 575.076 503.348 582.015 503.348 590.576 C 503.348 599.136 510.288 606.076 518.848 606.076 L 513.682 606.076 C 505.121 606.076 498.182 613.015 498.182 621.576 C 498.182 630.136 505.121 637.076 513.682 637.076 L 524.015 637.076 C 515.455 637.076 508.515 644.015 508.515 652.576 C 508.515 661.136 515.455 668.076 524.015 668.076 L 539.515 668.076 C 530.955 668.076 524.015 675.015 524.015 683.576 C 524.015 692.136 530.955 699.076 539.515 699.076 L 634.023 699.076 C 656.815 699.076 684.462 688.602 704.848 678.409 L 756.515 678.409 L 756.515 575.076 L 699.682 575.076 Z " fill="rgb(253,200,162)"/><path d=" M 519.424 545.701 L 523.266 475.983 L 533.578 476.551 L 529.736 546.27 L 519.424 545.701 Z " fill="rgb(59,165,211)"/><path d=" M 540.177 503.85 L 550.48 503.024 L 554.99 559.223 L 544.687 560.05 L 540.177 503.85 Z " fill="rgb(59,165,211)"/><circle vector-effect="non-scaling-stroke" cx="467.18181818181813" cy="600.9090903894223" r="10.333333333333314" fill="rgb(77,182,228)"/><circle vector-effect="non-scaling-stroke" cx="637.6818181818179" cy="637.0757570560888" r="10.333333333333371" fill="rgb(77,182,228)"/><path d=" M 742.823 487.242 L 756.515 487.242 L 756.515 497.576 L 741.015 497.576 C 739.843 497.576 738.706 497.177 737.79 496.446 L 734.864 494.108 C 720.033 482.242 703.711 472.372 686.313 464.751 L 640.879 446.733 C 640.824 446.711 640.77 446.689 640.716 446.668 C 636.498 444.824 631.569 446.465 629.299 450.469 C 627.028 454.473 628.15 459.545 631.897 462.218 L 671.506 488.085 C 672.664 488.842 673.47 490.032 673.743 491.388 C 675.813 499.837 679.525 507.796 684.669 514.811 C 695.501 529.328 710.81 535.704 730.165 533.771 L 731.193 544.053 Q 727.243 544.448 723.589 544.44 C 699.091 544.44 684.372 531.829 676.144 520.662 C 671.065 513.661 667.197 505.857 664.7 497.576 L 577.619 497.576 L 577.619 487.242 L 651.321 487.242 L 626.17 470.818 C 626.124 470.787 626.077 470.756 626.032 470.724 C 621.745 467.722 618.86 463.109 618.036 457.941 C 617.212 452.773 618.519 447.492 621.659 443.305 C 627.013 436.16 636.568 433.618 644.765 437.158 L 690.207 455.177 C 690.263 455.199 690.319 455.222 690.373 455.246 C 708.63 463.234 725.758 473.585 741.318 486.035 L 742.823 487.242 Z  M 550.817 456.242 L 572.564 560.63 L 582.681 558.522 L 560.175 450.508 C 559.829 419.359 534.499 394.28 503.348 394.242 L 446.515 394.242 L 446.515 404.576 L 503.348 404.576 C 527.019 404.606 546.902 422.388 549.564 445.909 L 518.194 445.909 C 515.827 436.791 507.602 430.421 498.182 430.409 L 446.515 430.409 L 446.515 440.742 L 498.182 440.742 C 503.724 440.751 508.273 445.129 508.494 450.667 L 482.782 579.229 L 492.915 581.256 L 517.918 456.242 L 550.817 456.242 Z  M 699.985 568.701 C 684.424 556.255 667.297 545.904 649.042 537.916 C 649.004 537.9 648.966 537.884 648.928 537.869 L 626.227 528.576 L 637.682 528.576 L 637.682 518.242 L 587.522 518.242 L 587.522 528.576 L 591.884 528.576 C 591.557 528.949 591.238 529.332 590.935 529.735 C 587.807 533.906 586.498 539.165 587.305 544.316 C 588.112 549.467 590.967 554.073 595.22 557.088 L 612.042 569.909 L 518.848 569.909 C 510.813 569.905 503.505 574.561 500.113 581.846 C 496.721 589.13 497.861 597.72 503.035 603.868 C 495.076 608.651 491.285 618.155 493.768 627.103 C 496.25 636.051 504.396 642.244 513.682 642.242 L 596.348 642.242 L 596.348 631.909 L 513.682 631.909 C 507.975 631.909 503.348 627.283 503.348 621.576 C 503.348 615.869 507.975 611.242 513.682 611.242 L 596.348 611.242 L 596.348 600.909 L 518.848 600.909 C 513.142 600.909 508.515 596.283 508.515 590.576 C 508.515 584.869 513.142 580.242 518.848 580.242 L 627.348 580.242 C 629.565 580.242 631.535 578.829 632.244 576.728 C 632.953 574.628 632.243 572.31 630.48 570.966 L 601.407 548.811 C 601.351 548.769 601.295 548.728 601.238 548.688 C 597.463 546.037 596.309 540.958 598.567 536.935 C 600.826 532.913 605.763 531.254 609.992 533.097 C 610.03 533.113 610.068 533.13 610.107 533.144 L 644.956 547.41 C 662.361 555.032 678.692 564.904 693.53 576.773 C 695.358 578.233 697.163 580.242 699.682 580.242 L 756.515 580.242 L 756.515 569.909 L 701.495 569.909 L 699.985 568.701 Z  M 702.538 673.788 C 690.439 679.838 659.541 693.909 634.023 693.909 L 539.515 693.909 C 533.808 693.909 529.182 689.283 529.182 683.576 C 529.182 677.869 533.808 673.242 539.515 673.242 L 596.348 673.242 L 596.348 662.909 L 524.015 662.909 C 518.311 662.902 513.689 658.28 513.682 652.576 L 503.348 652.576 C 503.361 663.088 511.253 671.921 521.697 673.113 C 517.942 679.502 517.896 687.414 521.578 693.845 C 525.26 700.277 532.104 704.245 539.515 704.242 L 634.023 704.242 C 645.378 704.242 669.756 701.54 706.063 683.576 L 756.515 683.576 L 756.515 673.242 L 704.848 673.242 C 704.046 673.242 703.255 673.429 702.538 673.788 Z  M 529.819 546.301 L 533.694 476.551 L 523.378 475.978 L 519.503 545.728 L 529.819 546.301 Z  M 540.177 503.805 L 544.698 559.992 L 554.999 559.163 L 550.478 502.976 L 540.177 503.805 Z  M 482.682 600.909 C 482.682 609.469 475.742 616.409 467.182 616.409 C 458.621 616.409 451.682 609.469 451.682 600.909 C 451.682 592.349 458.621 585.409 467.182 585.409 C 475.738 585.419 482.672 592.353 482.682 600.909 Z  M 472.348 600.909 C 472.348 598.056 470.035 595.742 467.182 595.742 C 464.328 595.742 462.015 598.056 462.015 600.909 C 462.015 603.763 464.328 606.076 467.182 606.076 C 470.034 606.073 472.345 603.761 472.348 600.909 Z  M 586.015 476.909 C 577.455 476.909 570.515 469.97 570.515 461.409 C 570.515 452.849 577.455 445.909 586.015 445.909 C 594.576 445.909 601.515 452.849 601.515 461.409 C 601.505 469.965 594.571 476.899 586.015 476.909 L 586.015 476.909 Z  M 586.015 466.576 C 588.869 466.576 591.182 464.263 591.182 461.409 C 591.182 458.556 588.869 456.242 586.015 456.242 C 583.162 456.242 580.848 458.556 580.848 461.409 C 580.852 464.261 583.163 466.573 586.015 466.576 L 586.015 466.576 Z  M 637.682 652.576 C 629.121 652.576 622.182 645.636 622.182 637.076 C 622.182 628.515 629.121 621.576 637.682 621.576 C 646.242 621.576 653.182 628.515 653.182 637.076 C 653.172 645.632 646.238 652.566 637.682 652.576 L 637.682 652.576 Z  M 637.682 642.242 C 640.535 642.242 642.848 639.929 642.848 637.076 C 642.848 634.222 640.535 631.909 637.682 631.909 C 634.828 631.909 632.515 634.222 632.515 637.076 C 632.518 639.928 634.83 642.239 637.682 642.242 L 637.682 642.242 Z " fill="rgb(0,0,0)"/></g></g></svg>