<svg id="Layer_1" enable-background="new 0 0 256 256" height="512" viewBox="0 0 256 256" width="512" xmlns="http://www.w3.org/2000/svg"><g><g><g><path d="m157.192 167.365h-91.14c-14.804 0-26.806 12.051-26.806 26.917v33.78h23.834v24.7h97.084v-24.7h23.834c0-12.612 0-21.116 0-33.78 0-14.866-12.002-26.917-26.806-26.917z" fill="#4671c6"/></g></g><g><g><path d="m84.281 143.948v25.573c0 14.851 11.989 26.889 26.778 26.889 14.782 0 26.778-12.03 26.778-26.892 0-5.173 0-20.224 0-25.57z" fill="#f9cfcf"/></g></g><g><g><path d="m39.246 228.062h23.834v24.7h-23.834z" fill="#f9cfcf"/></g></g><g><g><path d="m160.164 228.062h23.834v24.7h-23.834z" fill="#f9cfcf"/></g></g><g><g><path d="m183.998 254.762h-144.752c-1.104 0-2-.896-2-2v-58.479c0-15.945 12.922-28.917 28.806-28.917h16.229v-21.417c0-1.104.896-2 2-2h53.556c1.104 0 2 .896 2 2v21.417h17.355c15.884 0 28.806 12.972 28.806 28.917v58.479c0 1.105-.895 2-2 2zm-142.752-4h140.752v-56.479c0-13.74-11.128-24.917-24.806-24.917h-19.355c-1.104 0-2-.896-2-2v-21.417h-49.556v21.417c0 1.104-.896 2-2 2h-18.229c-13.678 0-24.806 11.178-24.806 24.917z" fill="#3762cc"/></g></g><g><g><path d="m63.08 254.762c-1.104 0-2-.896-2-2v-42.699c0-1.104.896-2 2-2s2 .896 2 2v42.699c0 1.105-.895 2-2 2z" fill="#3762cc"/></g></g><g><g><path d="m160.164 254.762c-1.104 0-2-.896-2-2v-42.699c0-1.104.896-2 2-2s2 .896 2 2v42.699c0 1.105-.896 2-2 2z" fill="#3762cc"/></g></g><g><g><path d="m63.08 254.762h-23.834c-1.104 0-2-.896-2-2v-24.7c0-1.104.896-2 2-2h23.834c1.104 0 2 .896 2 2v24.7c0 1.105-.895 2-2 2zm-21.834-4h19.834v-20.7h-19.834z" fill="#3762cc"/></g></g><g><g><path d="m183.998 254.762h-23.834c-1.104 0-2-.896-2-2v-24.7c0-1.104.896-2 2-2h23.834c1.104 0 2 .896 2 2v24.7c0 1.105-.895 2-2 2zm-21.834-4h19.834v-20.7h-19.834z" fill="#3762cc"/></g></g><g><g><g><path d="m111.622 143.344c-36.378 0-65.868-29.49-65.868-65.868v-27.589c0-9.144 7.413-16.557 16.557-16.557h115.18v44.146c-.001 36.378-29.491 65.868-65.869 65.868z" fill="#4671c6"/></g></g><g><g><path d="m111.622 145.344c-37.423 0-67.869-30.445-67.869-67.868v-27.589c0-10.232 8.325-18.557 18.557-18.557h115.18c1.104 0 2 .896 2 2v44.146c0 37.422-30.445 67.868-67.868 67.868zm-49.312-110.014c-8.026 0-14.557 6.53-14.557 14.557v27.589c0 35.217 28.651 63.868 63.868 63.868 35.217 0 63.868-28.651 63.868-63.868v-42.146z" fill="#3762cc"/></g></g><g><g><path d="m167.722 81.928v-5.253c0-30.704-25.117-55.595-56.1-55.595-30.983 0-56.1 24.891-56.1 55.595v5.253c-9.741-.198-17.47 7.563-17.47 16.943 0 10.017 8.745 17.94 18.952 16.861 5.79 24.597 28.039 42.922 54.619 42.922 26.582 0 48.829-18.327 54.619-42.922 10.193 1.078 18.952-6.83 18.952-16.861-.002-9.385-7.736-17.14-17.472-16.943z" fill="#f9cfcf"/></g></g><g><g><path d="m111.622 160.654c-26.575 0-49.427-17.525-56.156-42.829-4.788.073-9.542-1.671-13.14-4.909-3.988-3.588-6.275-8.708-6.275-14.045 0-5.11 2.019-9.902 5.685-13.495 3.208-3.144 7.334-5.017 11.785-5.385v-3.316c0-31.758 26.064-57.595 58.101-57.595s58.1 25.837 58.1 57.595v3.316c4.451.369 8.577 2.242 11.786 5.386 3.666 3.592 5.685 8.385 5.685 13.494 0 5.338-2.287 10.457-6.273 14.044-3.599 3.238-8.296 4.982-13.142 4.91-6.729 25.304-29.582 42.829-56.156 42.829zm-54.617-46.922c.918 0 1.731.63 1.945 1.542 5.735 24.364 27.394 41.38 52.672 41.38 25.277 0 46.937-17.016 52.672-41.381.231-.98 1.151-1.635 2.157-1.53 4.297.452 8.602-.93 11.792-3.8 3.145-2.83 4.949-6.865 4.949-11.071 0-4.026-1.593-7.803-4.484-10.637-2.92-2.861-6.8-4.385-10.945-4.307-.531.026-1.056-.195-1.44-.571s-.6-.891-.6-1.429v-5.253c0-29.553-24.269-53.595-54.1-53.595s-54.102 24.043-54.102 53.595v5.253c0 .538-.216 1.052-.6 1.429-.384.375-.908.595-1.44.571-4.122-.071-8.025 1.445-10.945 4.306-2.892 2.834-4.484 6.612-4.484 10.638 0 4.206 1.804 8.241 4.95 11.072 3.189 2.87 7.493 4.253 11.792 3.799.07-.008.141-.011.211-.011z" fill="#3762cc"/></g></g><g><g><path d="m177.49 71.145h-88.015c-18.752 0-33.953-15.201-33.953-33.953 0-18.752 15.201-33.953 33.953-33.953h57.611c16.792 0 30.404 13.612 30.404 30.404z" fill="#4671c6"/></g></g><g><g><path d="m177.49 73.145h-88.015c-19.825 0-35.953-16.128-35.953-35.953s16.128-35.954 35.953-35.954h57.611c17.868 0 32.404 14.537 32.404 32.404v37.502c0 1.105-.895 2.001-2 2.001zm-88.015-67.907c-17.619 0-31.953 14.334-31.953 31.954s14.334 31.953 31.953 31.953h86.016v-35.503c0-15.662-12.742-28.404-28.404-28.404z" fill="#3762cc"/></g></g><g><g><path d="m77.718 111.993c-.704 0-1.386-.372-1.751-1.031-.535-.966-.186-2.184.78-2.719l12.926-7.16-12.926-7.16c-.966-.535-1.315-1.752-.78-2.719.535-.966 1.752-1.315 2.719-.78l16.084 8.909c.636.353 1.031 1.022 1.031 1.75s-.395 1.397-1.031 1.75l-16.084 8.91c-.308.169-.64.25-.968.25z" fill="#3762cc"/></g></g><g><g><path d="m146.535 111.993c-.328 0-.66-.081-.967-.251l-16.084-8.91c-.636-.353-1.031-1.022-1.031-1.75s.395-1.397 1.031-1.75l16.084-8.909c.968-.534 2.184-.186 2.719.78s.186 2.184-.78 2.719l-12.926 7.16 12.926 7.16c.966.535 1.315 1.752.78 2.719-.366.66-1.049 1.032-1.752 1.032z" fill="#3762cc"/></g></g><g><g><ellipse cx="111.622" cy="129.813" fill="#f9a7a7" rx="13.009" ry="12.39" transform="matrix(.915 -.403 .403 .915 -42.841 55.975)"/></g></g><g><g><path d="m111.622 144.202c-8.276 0-15.009-6.455-15.009-14.39s6.733-14.39 15.009-14.39 15.009 6.455 15.009 14.39-6.733 14.39-15.009 14.39zm0-24.779c-6.07 0-11.009 4.661-11.009 10.39s4.939 10.39 11.009 10.39 11.009-4.661 11.009-10.39-4.939-10.39-11.009-10.39z" fill="#3762cc"/></g></g></g><g><g><g><path d="m202.161 156.884 3.09 9.761c.807 2.548 3.09 4.342 5.756 4.524 3.82.26 7.036-2.822 6.94-6.65-.067-2.672-1.763-5.03-4.274-5.944l-9.62-3.503c-1.139-.416-2.258.656-1.892 1.812z" fill="#a4c9ff"/></g></g><g><g><path d="m211.444 173.183c-.19 0-.382-.006-.573-.019-3.511-.239-6.466-2.561-7.527-5.916l-3.09-9.76c-.401-1.266-.054-2.624.905-3.542.958-.919 2.33-1.207 3.578-.753l9.62 3.503c3.306 1.204 5.5 4.255 5.589 7.773.06 2.385-.894 4.701-2.617 6.352-1.584 1.517-3.703 2.362-5.885 2.362zm-7.046-15.858 2.759 8.715c.562 1.776 2.126 3.006 3.985 3.132 1.271.089 2.493-.353 3.419-1.241.926-.887 1.418-2.081 1.385-3.363-.047-1.862-1.208-3.478-2.959-4.115zm-.331-1.045v.002c.001 0 0-.001 0-.002z" fill="#3762cc"/></g></g></g><g><g><g><path d="m172.454 145.011.472 10.227c.123 2.67 1.867 4.992 4.397 5.854 3.624 1.235 7.526-.914 8.418-4.638.623-2.599-.408-5.314-2.599-6.844l-8.393-5.863c-.993-.694-2.351.054-2.295 1.264z" fill="#a4c9ff"/></g></g><g><g><path d="m179.416 163.438c-.923 0-1.849-.149-2.738-.453-3.331-1.136-5.588-4.14-5.75-7.655l-.472-10.227c-.061-1.327.624-2.549 1.787-3.19 1.164-.641 2.563-.566 3.651.194l8.394 5.863c2.885 2.016 4.218 5.528 3.398 8.95-.556 2.321-2.074 4.312-4.165 5.464-1.267.699-2.683 1.054-4.105 1.054zm-4.914-17.424.421 9.132c.085 1.861 1.281 3.452 3.044 4.053 1.213.414 2.5.3 3.623-.318 1.123-.619 1.906-1.646 2.205-2.893.434-1.812-.272-3.671-1.799-4.738z" fill="#3762cc"/></g></g></g><g><g><g><g><path d="m183.766 141.399c-.359 0-.724-.097-1.052-.3-1.673-1.037-3.405-2.024-5.148-2.933-.979-.511-1.359-1.719-.849-2.698.511-.979 1.719-1.359 2.698-.849 1.83.955 3.649 1.991 5.406 3.08.939.582 1.228 1.815.646 2.754-.378.61-1.031.946-1.701.946zm-16.424-7.81c-.217 0-.438-.036-.655-.111-1.853-.642-3.76-1.228-5.671-1.741-1.067-.287-1.699-1.384-1.413-2.45.287-1.067 1.386-1.7 2.451-1.412 2.002.538 4.001 1.152 5.943 1.824 1.043.362 1.597 1.501 1.235 2.545-.287.826-1.062 1.345-1.89 1.345zm-17.72-4.123c-.084 0-.17-.005-.256-.016-1.947-.249-3.939-.439-5.922-.565-1.102-.07-1.939-1.021-1.869-2.123s1.007-1.938 2.123-1.869c2.066.131 4.144.33 6.175.589 1.096.14 1.871 1.142 1.73 2.238-.129 1.009-.99 1.746-1.981 1.746zm-24.251-.083c-1.001 0-1.866-.75-1.984-1.769-.127-1.097.659-2.09 1.756-2.218 2.041-.238 4.116-.417 6.169-.535 1.092-.058 2.048.78 2.111 1.882.063 1.103-.779 2.048-1.882 2.111-1.975.113-3.972.286-5.936.515-.079.009-.157.014-.234.014z" fill="#a4c9ff"/></g></g></g><g><g><g><path d="m195.868 150.514c-.478 0-.957-.17-1.34-.515-.733-.662-1.469-1.304-2.209-1.927-.845-.711-.953-1.973-.241-2.818.711-.845 1.973-.953 2.818-.241.774.652 1.546 1.325 2.313 2.017.82.74.884 2.005.144 2.825-.394.437-.939.659-1.485.659z" fill="#a4c9ff"/></g></g></g></g><g><g><g><path d="m179.137 194.461-.522 10.225c-.136 2.669 1.375 5.149 3.809 6.253 3.488 1.581 7.579-.18 8.828-3.8.872-2.526.109-5.329-1.923-7.064l-7.785-6.649c-.922-.788-2.346-.175-2.407 1.035z" fill="#a4c9ff"/></g></g><g><g><path d="m185.107 213.516c-1.199 0-2.397-.252-3.51-.756-3.205-1.453-5.16-4.662-4.98-8.176l.522-10.225c.068-1.326.867-2.476 2.087-3.001s2.605-.316 3.616.546l7.785 6.649c2.676 2.286 3.663 5.912 2.515 9.238-.779 2.256-2.482 4.091-4.675 5.034-1.07.461-2.216.691-3.36.691zm-4.029-17.858-.466 9.13c-.095 1.861.94 3.56 2.637 4.329 1.167.53 2.459.542 3.638.035 1.177-.507 2.056-1.453 2.475-2.665.608-1.761.085-3.681-1.332-4.891zm.056-1.095v.002c0-.001 0-.002 0-.002zm-1.997-.102h.01z" fill="#3762cc"/></g></g></g><g><g><g><g><path d="m167.042 170.605c-.333-.136-.633-.364-.86-.676-1.157-1.593-2.386-3.162-3.656-4.663-.713-.843-.608-2.105.235-2.819.844-.713 2.106-.608 2.819.235 1.333 1.576 2.625 3.223 3.839 4.896.649.894.45 2.144-.444 2.793-.581.424-1.313.487-1.933.234zm-12.248-13.443c-.201-.082-.392-.199-.564-.35-1.472-1.295-3.016-2.559-4.591-3.758-.879-.669-1.049-1.924-.38-2.803s1.926-1.05 2.803-.38c1.65 1.255 3.268 2.58 4.811 3.937.829.73.91 1.993.18 2.823-.579.657-1.492.844-2.259.531zm-14.843-10.521c-.078-.032-.155-.069-.231-.112-1.708-.967-3.481-1.897-5.268-2.763-.994-.482-1.409-1.678-.927-2.672s1.665-1.413 2.673-.927c1.863.903 3.711 1.873 5.493 2.882.961.544 1.3 1.765.755 2.726-.502.884-1.577 1.241-2.495.866zm-22.417-9.252c-.927-.379-1.443-1.401-1.168-2.388.297-1.064 1.401-1.686 2.464-1.389 1.979.552 3.968 1.171 5.913 1.838 1.033.36 1.601 1.497 1.242 2.541-.358 1.045-1.496 1.601-2.541 1.242-1.871-.642-3.785-1.238-5.689-1.769-.076-.021-.15-.046-.221-.075z" fill="#a4c9ff"/></g></g></g><g><g><g><path d="m174.796 183.621c-.442-.181-.822-.52-1.045-.984-.428-.89-.867-1.763-1.316-2.62-.513-.978-.135-2.187.843-2.7s2.187-.135 2.7.843c.47.897.93 1.811 1.378 2.742.479.995.06 2.19-.935 2.669-.531.257-1.12.257-1.625.05z" fill="#a4c9ff"/></g></g></g></g><g><g><g><path d="m155.2 168.355-3.708 9.543c-.968 2.491-.313 5.321 1.651 7.133 2.814 2.596 7.252 2.21 9.575-.833 1.622-2.124 1.778-5.024.394-7.311l-5.301-8.758c-.628-1.038-2.172-.903-2.611.226z" fill="#a4c9ff"/></g></g><g><g><path d="m157.555 188.753c-2.125 0-4.194-.801-5.768-2.252-2.586-2.387-3.434-6.047-2.16-9.327l3.708-9.543c.481-1.238 1.602-2.079 2.925-2.194 1.321-.116 2.572.519 3.26 1.655l5.302 8.759c1.822 3.011 1.62 6.763-.515 9.56-1.448 1.897-3.642 3.104-6.02 3.311-.244.021-.488.031-.732.031zm-.888-18.652-3.312 8.521c-.675 1.736-.226 3.675 1.144 4.938.942.869 2.165 1.284 3.442 1.175 1.277-.111 2.409-.733 3.187-1.752 1.13-1.481 1.237-3.468.273-5.062zm.397-1.021-.001.002s0-.001.001-.002z" fill="#3762cc"/></g></g></g></g></svg>