<?xml version="1.0" encoding="UTF-8" standalone="no"?><!-- Generator: Gravit.io --><svg xmlns="http://www.w3.org/2000/svg" xmlns:xlink="http://www.w3.org/1999/xlink" style="isolation:isolate" viewBox="472 227 432.027 464" width="432.027pt" height="464pt"><defs><clipPath id="_clipPath_mQql20RumYFHf4fpIGGbZ2RFhBQ4AjTC"><rect x="472" y="227" width="432.027" height="464"/></clipPath></defs><g clip-path="url(#_clipPath_mQql20RumYFHf4fpIGGbZ2RFhBQ4AjTC)"><g><path d=" M 720 227 L 656 227 C 638.327 227 624 241.327 624 259 C 624 250.163 616.837 243 608 243 L 592 243 C 574.327 243 560 257.327 560 275 L 560 387 L 784 387 L 784 291 C 784 255.654 755.346 227 720 227 Z " fill="rgb(65,64,66)"/><path d=" M 650 227.007 L 620 227.007 C 586.863 227.007 564.896 247.327 564.896 265 L 560 371.007 L 680 371.007 L 680 243.007 C 680 234.171 666.569 227.007 650 227.007 Z " fill="rgb(65,64,66)"/><path d=" M 863.2 603.04 C 859.111 562.145 824.699 531.002 783.6 531 L 730.64 531 C 720.8 559.24 698.24 579 672 579 C 645.76 579 623.24 559.24 613.36 531 L 564.896 531 C 525.296 531.002 491.657 559.974 485.784 599.136 L 472 691 L 872 691 L 863.2 603.04 Z " fill="rgb(0,109,240)"/><path d=" M 576 691 L 560 691 L 560 643 C 560 638.582 563.582 635 568 635 C 572.418 635 576 638.582 576 643 L 576 691 Z " fill="rgb(0,94,206)"/><path d=" M 784 691 L 768 691 L 768 643 C 768 638.582 771.582 635 776 635 C 780.418 635 784 638.582 784 643 L 784 691 Z " fill="rgb(0,94,206)"/><path d=" M 863.2 603.04 C 859.111 562.145 824.699 531.002 783.6 531 L 767.6 531 C 808.699 531.002 843.111 562.145 847.2 603.04 L 856 691 L 872 691 L 863.2 603.04 Z " fill="rgb(0,94,206)"/><path d=" M 544 387.054 C 544 378.214 528 355.054 528 355.054 C 528 355.054 512 378.214 512 387.054 C 512 395.89 519.163 403.054 528 403.054 C 536.837 403.054 544 395.89 544 387.054 Z " fill="rgb(87,164,255)"/><path d=" M 528 507 C 541.255 507 552 496.255 552 483 C 552 469.744 528 443 528 443 C 528 443 504 469.744 504 483 C 504 496.255 514.745 507 528 507 Z " fill="rgb(87,164,255)"/><path d=" M 752 371 L 776 371 C 784.837 371 792 378.163 792 387 L 792 411 C 792 419.837 784.837 427 776 427 L 752 427 L 752 371 Z " fill="rgb(255,172,150)"/><path d=" M 592 427 L 568 427 C 559.163 427 552 419.837 552 411 L 552 387 C 552 378.163 559.163 371 568 371 L 592 371 L 592 427 Z " fill="rgb(255,172,150)"/><path d=" M 672 579 C 698.24 579 720.76 559.24 730.64 531 L 728 531 C 727.784 531 727.584 530.944 727.376 530.936 C 718.809 530.602 712.028 523.574 712 515 L 712 489.32 C 686.895 502.226 657.105 502.226 632 489.32 L 632 515 C 631.972 523.574 625.191 530.602 616.624 530.936 C 616.416 530.936 616.216 531 616 531 L 613.36 531 C 623.24 559.24 645.76 579 672 579 Z " fill="rgb(255,172,150)"/><path d=" M 712 505.32 L 712 489.32 C 686.895 502.226 657.105 502.226 632 489.32 L 632 505.32 C 657.105 518.226 686.895 518.226 712 505.32 Z " fill="rgb(255,148,120)"/><path d=" M 904 571 C 904.018 598.751 883.709 622.33 856.262 626.424 C 828.814 630.518 802.508 613.892 794.427 587.344 C 786.346 560.796 798.927 532.333 824 520.44 L 824 251 C 824 237.745 834.745 227 848 227 C 861.255 227 872 237.745 872 251 L 872 520.44 C 891.572 529.659 904.045 549.366 904 571 Z " fill="rgb(215,59,32)"/><path d=" M 872 520.44 L 872 251 C 872.068 243.188 868.296 235.841 861.908 231.344 C 855.52 226.846 847.331 225.773 840 228.472 C 849.611 231.775 856.047 240.837 856 251 L 856 520.44 C 878.312 531.002 891.063 554.942 887.376 579.352 C 883.689 603.761 864.437 622.867 840 626.368 C 867.41 630.366 893.618 613.704 901.628 587.188 C 909.638 560.672 897.039 532.286 872 520.44 Z " fill="rgb(238,135,0)"/><circle vector-effect="non-scaling-stroke" cx="848" cy="571" r="16" fill="rgb(238,135,0)"/><path d=" M 616 307 L 728 307 C 745.673 307 760 321.327 760 339 L 760 411 C 760 459.601 720.601 499 672 499 C 623.399 499 584 459.601 584 411 L 584 339 C 584 321.327 598.327 307 616 307 Z " fill="rgb(255,188,171)"/><path d=" M 513 306.338 C 513 310.574 517.701 314.007 523.5 314.007 C 529.299 314.007 534 310.574 534 306.338 C 534 302.101 523.5 291 523.5 291 C 523.5 291 513 302.12 513 306.338 Z " fill="rgb(36,136,255)"/><path d=" M 690.352 464.664 C 692.364 466.741 695.339 467.57 698.135 466.834 C 700.931 466.098 703.112 463.911 703.84 461.113 C 704.568 458.315 703.73 455.342 701.648 453.336 L 700.28 451.976 C 684.661 436.366 659.347 436.366 643.728 451.976 L 642.352 453.344 C 640.27 455.35 639.432 458.323 640.16 461.121 C 640.888 463.919 643.069 466.106 645.865 466.842 C 648.661 467.578 651.636 466.749 653.648 464.672 L 655.032 463.296 C 664.525 454.215 679.483 454.215 688.976 463.296 L 690.352 464.664 Z " fill="rgb(66,67,72)"/><path d=" M 657.696 423.92 C 659.211 425.863 661.537 426.999 664 427 L 680 427 C 684.418 427 688 423.418 688 419 C 688 414.582 684.418 411 680 411 L 674.248 411 L 679.76 388.944 C 680.798 384.672 678.194 380.363 673.93 379.295 C 669.666 378.227 665.339 380.8 664.24 385.056 L 656.24 417.056 C 655.643 419.446 656.18 421.978 657.696 423.92 Z " fill="rgb(66,67,72)"/><path d=" M 661.68 360.68 L 659.76 362.6 C 656.223 366.059 652.273 369.068 648 371.56 L 648 379 C 648 383.418 644.418 387 640 387 C 635.582 387 632 383.418 632 379 L 632 377.72 C 628.081 378.554 624.087 378.983 620.08 379 L 616 379 C 611.582 379 608 375.418 608 371 C 608 366.582 611.582 363 616 363 L 620.08 363 C 630.7 363.04 640.896 358.835 648.4 351.32 L 650.32 349.32 C 653.457 346.183 658.543 346.183 661.68 349.32 C 664.817 352.457 664.817 357.543 661.68 360.68 Z " fill="rgb(66,67,72)"/><path d=" M 736 371 C 736 375.418 732.418 379 728 379 L 723.92 379 C 719.913 378.983 715.919 378.554 712 377.72 L 712 379 C 712 383.418 708.418 387 704 387 C 699.582 387 696 383.418 696 379 L 696 371.56 C 691.738 369.087 687.813 366.076 684.32 362.6 L 682.32 360.68 C 679.183 357.543 679.183 352.457 682.32 349.32 C 685.457 346.183 690.543 346.183 693.68 349.32 L 695.6 351.32 C 703.104 358.835 713.3 363.04 723.92 363 L 728 363 C 732.418 363 736 366.582 736 371 Z " fill="rgb(66,67,72)"/><g><path d=" M 848 267 L 872 267 L 872 283 L 848 283 L 848 267 Z " fill="rgb(170,97,0)"/><path d=" M 848 299 L 872 299 L 872 315 L 848 315 L 848 299 Z " fill="rgb(170,97,0)"/><path d=" M 848 331 L 872 331 L 872 347 L 848 347 L 848 331 Z " fill="rgb(170,97,0)"/><path d=" M 848 363 L 872 363 L 872 379 L 848 379 L 848 363 Z " fill="rgb(170,97,0)"/><path d=" M 848 395 L 872 395 L 872 411 L 848 411 L 848 395 Z " fill="rgb(170,97,0)"/><path d=" M 848 427 L 872 427 L 872 443 L 848 443 L 848 427 Z " fill="rgb(170,97,0)"/><path d=" M 848 459 L 872 459 L 872 475 L 848 475 L 848 459 Z " fill="rgb(170,97,0)"/><path d=" M 848 491 L 872 491 L 872 507 L 848 507 L 848 491 Z " fill="rgb(170,97,0)"/></g><path d=" M 840 331 L 856 331 L 856 571 L 840 571 L 840 331 Z " fill="rgb(238,135,0)"/></g></g></svg>