<?xml version="1.0" encoding="UTF-8" standalone="no"?><!-- Generator: Gravit.io --><svg xmlns="http://www.w3.org/2000/svg" xmlns:xlink="http://www.w3.org/1999/xlink" style="isolation:isolate" viewBox="241 186 447.027 507.048" width="447.027pt" height="507.048pt"><defs><clipPath id="_clipPath_l9l8xc9PR8XFG8AJ4osL0IODMG9mHztT"><rect x="241" y="186" width="447.027" height="507.048"/></clipPath></defs><g clip-path="url(#_clipPath_l9l8xc9PR8XFG8AJ4osL0IODMG9mHztT)"><g><g><g><g><path d=" M 533.99 509.89 L 347.69 509.89 C 317.429 509.89 292.897 535.172 292.897 566.36 L 292.897 612.066 L 292.897 637.226 L 341.616 637.226 L 341.616 689.046 L 540.062 689.046 L 540.062 637.226 L 588.781 637.226 L 588.781 612.066 L 588.781 566.36 C 588.783 535.174 564.251 509.89 533.99 509.89 L 533.99 509.89 Z " fill="rgb(70,113,198)"/></g></g><g><g><path d=" M 384.952 460.764 L 384.952 514.408 L 384.952 514.414 C 384.952 545.57 409.459 570.826 439.688 570.826 C 469.904 570.826 494.424 545.588 494.424 514.408 C 494.424 503.556 494.424 471.98 494.424 460.764 L 384.952 460.764 Z " fill="rgb(249,207,207)"/></g></g><g><g><path d=" M 292.897 637.228 L 341.616 637.228 L 341.616 689.048 L 292.897 689.048 L 292.897 637.228 Z " fill="rgb(249,207,207)"/></g></g><g><g><path d=" M 540.064 637.228 L 588.783 637.228 L 588.783 689.048 L 540.064 689.048 L 540.064 637.228 Z " fill="rgb(249,207,207)"/></g></g><g><g><path d=" M 588.783 693.048 L 292.897 693.048 C 290.746 693.048 289 691.256 289 689.048 L 289 566.362 C 289 533.018 315.328 505.892 347.69 505.892 L 381.055 505.892 L 381.055 460.764 C 381.055 458.556 382.801 456.764 384.952 456.764 L 494.424 456.764 C 496.576 456.764 498.322 458.556 498.322 460.764 L 498.322 505.89 L 533.99 505.89 C 566.352 505.89 592.68 533.016 592.68 566.36 L 592.68 689.046 C 592.68 691.256 590.934 693.048 588.783 693.048 L 588.783 693.048 Z  M 296.795 685.048 L 584.885 685.048 L 584.885 566.362 C 584.885 537.43 562.053 513.892 533.99 513.892 L 494.424 513.892 C 492.273 513.892 490.527 512.1 490.527 509.892 L 490.527 464.764 L 388.85 464.764 L 388.85 509.89 C 388.85 512.098 387.104 513.89 384.952 513.89 L 347.69 513.89 C 319.627 513.89 296.795 537.428 296.795 566.36 L 296.795 685.048 Z " fill="rgb(55,98,204)"/></g></g><g><g><path d=" M 341.618 693.048 C 339.467 693.048 337.721 691.256 337.721 689.048 L 337.721 599.47 C 337.721 597.262 339.467 595.47 341.618 595.47 C 343.769 595.47 345.515 597.262 345.515 599.47 L 345.515 689.048 C 345.515 691.256 343.769 693.048 341.618 693.048 Z " fill="rgb(55,98,204)"/></g></g><g><g><path d=" M 540.064 693.048 C 537.913 693.048 536.167 691.256 536.167 689.048 L 536.167 599.47 C 536.167 597.262 537.913 595.47 540.064 595.47 C 542.215 595.47 543.961 597.262 543.961 599.47 L 543.961 689.048 C 543.961 691.256 542.215 693.048 540.064 693.048 Z " fill="rgb(55,98,204)"/></g></g><g><g><path d=" M 341.618 693.048 L 292.897 693.048 C 290.746 693.048 289 691.256 289 689.048 L 289 637.23 C 289 635.022 290.746 633.23 292.897 633.23 L 341.616 633.23 C 343.767 633.23 345.513 635.022 345.513 637.23 L 345.513 689.048 C 345.515 691.256 343.769 693.048 341.618 693.048 L 341.618 693.048 Z  M 296.795 685.048 L 337.719 685.048 L 337.719 641.23 L 296.795 641.23 L 296.795 685.048 Z " fill="rgb(55,98,204)"/></g></g><g><g><path d=" M 588.783 693.048 L 540.064 693.048 C 537.913 693.048 536.167 691.256 536.167 689.048 L 536.167 637.23 C 536.167 635.022 537.913 633.23 540.064 633.23 L 588.783 633.23 C 590.934 633.23 592.68 635.022 592.68 637.23 L 592.68 689.048 C 592.68 691.256 590.934 693.048 588.783 693.048 Z  M 543.961 685.048 L 584.885 685.048 L 584.885 641.23 L 543.961 641.23 L 543.961 685.048 Z " fill="rgb(55,98,204)"/></g></g></g><g><g><g><path d=" M 440.84 470.212 C 369.951 470.212 312.485 411.232 312.485 338.476 L 312.485 283.298 C 312.485 265.01 326.931 250.184 344.749 250.184 L 569.197 250.184 L 569.197 338.476 C 569.197 411.232 511.729 470.212 440.84 470.212 L 440.84 470.212 Z " fill="rgb(70,113,198)"/></g></g><g><g><path d=" M 440.84 474.212 C 367.915 474.212 308.586 413.322 308.586 338.476 L 308.586 283.298 C 308.586 262.834 324.809 246.184 344.747 246.184 L 569.195 246.184 C 571.346 246.184 573.092 247.976 573.092 250.184 L 573.092 338.476 C 573.094 413.32 513.765 474.212 440.84 474.212 Z  M 344.747 254.184 C 329.107 254.184 316.381 267.244 316.381 283.298 L 316.381 338.476 C 316.381 408.91 372.212 466.212 440.838 466.212 C 509.464 466.212 565.295 408.91 565.295 338.476 L 565.295 254.184 L 344.747 254.184 Z " fill="rgb(55,98,204)"/></g></g><g><g><path d=" M 550.162 347.38 L 550.162 336.874 C 550.162 275.466 501.217 225.684 440.842 225.684 C 380.466 225.684 331.522 275.466 331.522 336.874 L 331.522 347.38 C 312.54 346.984 297.479 362.506 297.479 381.266 C 297.479 401.3 314.52 417.146 334.41 414.988 C 345.693 464.182 389.048 500.832 440.844 500.832 C 492.643 500.832 535.995 464.178 547.278 414.988 C 567.141 417.144 584.209 401.328 584.209 381.266 C 584.205 362.496 569.132 346.986 550.162 347.38 Z " fill="rgb(249,207,207)"/></g></g><g><g><path d=" M 440.84 504.832 C 389.054 504.832 344.523 469.782 331.411 419.174 C 322.061 419.316 312.817 415.832 305.803 409.356 C 298.034 402.18 293.577 391.94 293.577 381.266 C 293.577 371.046 297.512 361.462 304.656 354.276 C 310.907 347.988 318.947 344.242 327.621 343.506 L 327.621 336.874 C 327.623 273.358 378.413 221.684 440.84 221.684 C 503.267 221.684 554.057 273.358 554.057 336.874 L 554.057 343.506 C 562.731 344.244 570.771 347.99 577.024 354.278 C 584.168 361.462 588.103 371.048 588.103 381.266 C 588.103 391.942 583.646 402.18 575.879 409.354 C 568.863 415.83 559.629 419.256 550.269 419.174 C 537.157 469.782 492.626 504.832 440.84 504.832 L 440.84 504.832 Z  M 334.41 410.988 C 336.199 410.988 337.783 412.248 338.2 414.072 C 349.376 462.8 391.582 496.832 440.84 496.832 C 490.096 496.832 532.304 462.8 543.478 414.072 C 543.928 412.112 545.725 410.794 547.681 411.01 C 556.065 411.914 564.446 409.15 570.662 403.408 C 576.791 397.748 580.306 389.678 580.306 381.266 C 580.306 373.214 577.202 365.66 571.568 359.992 C 565.878 354.27 558.311 351.23 550.24 351.378 C 549.184 351.424 548.182 350.988 547.434 350.236 C 546.686 349.484 546.265 348.454 546.265 347.378 L 546.265 336.872 C 546.265 277.766 498.973 229.682 440.842 229.682 C 382.711 229.682 335.417 277.77 335.417 336.874 L 335.417 347.38 C 335.417 348.456 334.996 349.484 334.248 350.238 C 333.5 350.99 332.498 351.422 331.442 351.38 C 323.427 351.222 315.804 354.27 310.114 359.992 C 304.478 365.658 301.376 373.214 301.376 381.268 C 301.376 389.68 304.891 397.75 311.022 403.412 C 317.236 409.152 325.615 411.918 334.001 411.01 C 334.137 410.994 334.273 410.988 334.41 410.988 L 334.41 410.988 Z " fill="rgb(55,98,204)"/></g></g><g><g><path d=" M 569.197 325.814 L 397.685 325.814 C 361.143 325.814 331.522 295.412 331.522 257.908 C 331.522 220.404 361.143 190.002 397.685 190.002 L 509.949 190.002 C 542.671 190.002 569.197 217.226 569.197 250.81 L 569.197 325.814 Z " fill="rgb(70,113,198)"/></g></g><g><g><path d=" M 569.197 329.814 L 397.683 329.814 C 359.051 329.814 327.623 297.558 327.623 257.908 C 327.623 218.258 359.051 186 397.683 186 L 509.947 186 C 544.766 186 573.092 215.074 573.092 250.808 L 573.092 325.812 C 573.094 328.022 571.348 329.814 569.197 329.814 L 569.197 329.814 Z  M 397.683 194 C 363.349 194 335.417 222.668 335.417 257.906 C 335.417 293.144 363.349 321.812 397.683 321.812 L 565.299 321.812 L 565.299 250.808 C 565.299 219.484 540.469 194 509.949 194 L 397.683 194 Z " fill="rgb(55,98,204)"/></g></g><g><g><g><path d=" M 487.283 363.686 C 485.157 366.184 483.861 369.442 483.861 373.018 L 483.861 388.174 C 483.861 396.02 490.059 402.382 497.704 402.382 C 505.351 402.382 511.547 396.02 511.547 388.174 L 511.547 373.706 C 501.638 371.928 493.374 367.754 487.283 363.686 L 487.283 363.686 Z " fill="rgb(55,98,204)"/></g></g><g><g><path d=" M 370.105 373.692 L 370.105 388.174 C 370.105 396.02 376.304 402.382 383.949 402.382 C 391.593 402.382 397.792 396.02 397.792 388.174 L 397.792 373.018 C 397.792 369.426 396.483 366.154 394.341 363.652 C 388.263 367.722 380.007 371.902 370.105 373.692 L 370.105 373.692 Z " fill="rgb(55,98,204)"/></g></g><g><g><path d=" M 521.406 378.602 C 492.339 378.602 473.525 357.494 472.722 356.574 C 471.284 354.93 471.416 352.402 473.016 350.926 C 474.614 349.45 477.075 349.586 478.515 351.224 C 478.724 351.462 496.71 371.496 523.23 370.57 C 525.428 370.524 527.185 372.226 527.257 374.432 C 527.33 376.64 525.644 378.49 523.495 378.566 C 522.793 378.59 522.095 378.602 521.406 378.602 L 521.406 378.602 Z " fill="rgb(55,98,204)"/></g></g><g><g><path d=" M 360.169 378.602 C 359.477 378.602 358.784 378.59 358.08 378.566 C 355.929 378.49 354.245 376.64 354.317 374.432 C 354.389 372.224 356.167 370.49 358.345 370.57 C 384.985 371.506 402.878 351.43 403.055 351.228 C 404.493 349.582 406.957 349.448 408.558 350.926 C 410.16 352.402 410.293 354.93 408.853 356.574 C 408.05 357.494 389.233 378.602 360.169 378.602 L 360.169 378.602 Z " fill="rgb(55,98,204)"/></g></g></g></g></g><clipPath id="_clipPath_VJFXwo4BQXCulDRV0iK11vlnVoWhfNo8"><rect x="241" y="207.524" width="447.027" height="464" transform="matrix(1,0,0,1,0,0)" fill="rgb(255,255,255)"/></clipPath><g clip-path="url(#_clipPath_VJFXwo4BQXCulDRV0iK11vlnVoWhfNo8)"><g><g><path d=" M 286.01 386.233 C 286.01 377.393 269.455 354.233 269.455 354.233 C 269.455 354.233 252.899 377.393 252.899 386.233 C 252.899 395.069 260.311 402.233 269.455 402.233 C 278.599 402.233 286.01 395.069 286.01 386.233 Z " fill="rgb(87,164,255)"/><path d=" M 269.455 500.943 C 283.17 500.943 294.288 490.198 294.288 476.943 C 294.288 463.687 269.455 436.943 269.455 436.943 C 269.455 436.943 244.622 463.687 244.622 476.943 C 244.622 490.198 255.74 500.943 269.455 500.943 Z " fill="rgb(87,164,255)"/><path d=" M 687.999 551.524 C 688.018 579.275 667.004 602.854 638.604 606.948 C 610.203 611.042 582.983 594.416 574.622 567.868 C 566.26 541.32 579.278 512.857 605.221 500.964 L 605.221 231.524 C 605.221 218.269 616.34 207.524 630.055 207.524 C 643.77 207.524 654.888 218.269 654.888 231.524 L 654.888 500.964 C 675.14 510.183 688.046 529.89 687.999 551.524 Z " fill="rgb(178,168,208)"/><path d=" M 654.888 500.964 L 654.888 231.524 C 654.958 223.712 651.055 216.365 644.446 211.868 C 637.836 207.37 629.363 206.297 621.777 208.996 C 631.722 212.299 638.381 221.361 638.333 231.524 L 638.333 500.964 C 661.419 511.526 674.613 535.466 670.798 559.876 C 666.983 584.285 647.062 603.391 621.777 606.892 C 650.139 610.89 677.257 594.228 685.545 567.712 C 693.833 541.196 680.796 512.81 654.888 500.964 Z " fill="rgb(162,149,204)"/><ellipse vector-effect="non-scaling-stroke" cx="630.0547396343284" cy="551.524" rx="16.55552083550333" ry="16" fill="rgb(0,20,238)"/><ellipse vector-effect="non-scaling-stroke" cx="1.4152751816647005" cy="444.3850909090909" rx="16.555520835503337" ry="16" fill="rgb(238,135,0)"/><path d=" M 460.202 461.338 C 462.284 463.415 465.362 464.244 468.255 463.508 C 471.148 462.772 473.405 460.585 474.158 457.787 C 474.911 454.989 474.044 452.016 471.89 450.01 L 470.474 448.65 C 454.313 433.04 428.12 433.04 411.959 448.65 L 410.535 450.018 C 408.381 452.024 407.514 454.997 408.267 457.795 C 409.02 460.593 411.277 462.78 414.17 463.516 C 417.063 464.252 420.141 463.423 422.223 461.346 L 423.655 459.97 C 428.567 455.43 434.404 453.159 441.217 453.159 C 448.029 453.159 453.867 455.43 458.778 459.97 L 460.202 461.338 Z " fill="rgb(70,113,198)"/><path d=" M 103.746 453.953 C 105.828 456.03 108.907 456.859 111.8 456.123 C 114.693 455.387 116.949 453.2 117.703 450.402 C 118.456 447.604 117.589 444.631 115.435 442.625 L 114.019 441.265 C 97.858 425.655 71.665 425.655 55.504 441.265 L 54.08 442.633 C 51.926 444.639 51.059 447.612 51.812 450.41 C 52.565 453.208 54.822 455.395 57.715 456.131 C 60.608 456.867 63.686 456.038 65.768 453.961 L 67.2 452.585 C 77.023 443.504 92.5 443.504 102.323 452.585 L 103.746 453.953 Z " fill="rgb(66,67,72)"/><path d=" M 103.746 453.953 C 105.828 456.03 108.907 456.859 111.8 456.123 C 114.693 455.387 116.949 453.2 117.703 450.402 C 118.456 447.604 117.589 444.631 115.435 442.625 L 114.019 441.265 C 97.858 425.655 71.665 425.655 55.504 441.265 L 54.08 442.633 C 51.926 444.639 51.059 447.612 51.812 450.41 C 52.565 453.208 54.822 455.395 57.715 456.131 C 60.608 456.867 63.686 456.038 65.768 453.961 L 67.2 452.585 C 77.023 443.504 92.5 443.504 102.323 452.585 L 103.746 453.953 Z " fill="rgb(66,67,72)"/><path d=" M -172.625 467.402 C -170.543 469.479 -167.465 470.308 -164.572 469.572 C -161.679 468.836 -159.422 466.649 -158.669 463.851 C -157.916 461.053 -158.783 458.08 -160.937 456.074 L -162.352 454.714 C -178.514 439.104 -204.707 439.104 -220.868 454.714 L -222.292 456.082 C -224.446 458.088 -225.313 461.061 -224.56 463.859 C -223.807 466.657 -221.55 468.844 -218.657 469.58 C -215.764 470.316 -212.685 469.487 -210.604 467.41 L -209.172 466.034 C -199.349 456.953 -183.872 456.953 -174.049 466.034 L -172.625 467.402 Z " fill="rgb(66,67,72)"/><g><path d=" M 630.055 247.524 L 654.888 247.524 L 654.888 263.524 L 630.055 263.524 L 630.055 247.524 Z " fill="rgb(36,90,176)"/><path d=" M 630.055 279.524 L 654.888 279.524 L 654.888 295.524 L 630.055 295.524 L 630.055 279.524 Z " fill="rgb(36,90,176)"/><path d=" M 630.055 311.524 L 654.888 311.524 L 654.888 327.524 L 630.055 327.524 L 630.055 311.524 Z " fill="rgb(36,90,176)"/><path d=" M 630.055 343.524 L 654.888 343.524 L 654.888 359.524 L 630.055 359.524 L 630.055 343.524 Z " fill="rgb(36,90,176)"/><path d=" M 630.055 375.524 L 654.888 375.524 L 654.888 391.524 L 630.055 391.524 L 630.055 375.524 Z " fill="rgb(36,90,176)"/><path d=" M 630.055 407.524 L 654.888 407.524 L 654.888 423.524 L 630.055 423.524 L 630.055 407.524 Z " fill="rgb(36,90,176)"/><path d=" M 630.055 439.524 L 654.888 439.524 L 654.888 455.524 L 630.055 455.524 L 630.055 439.524 Z " fill="rgb(36,90,176)"/><path d=" M 630.055 471.524 L 654.888 471.524 Q 658.308 482.566 654.888 487.524 Q 649.171 495.812 630.055 487.524 L 630.055 471.524 Z " fill="rgb(36,90,176)"/></g><path d=" M 621.777 270 L 638.333 270 L 638.333 285.258 L 638.333 551.524 L 621.777 551.524 L 621.777 270 Z " fill="rgb(0,20,238)"/></g></g></g><path d=" M 266.5 330 C 273.956 330 280 322.613 280 313.5 C 280 304.386 266.5 286 266.5 286 C 266.5 286 253 304.386 253 313.5 C 253 322.613 259.044 330 266.5 330 Z " fill="rgb(87,164,255)"/></g></svg>